<svg xmlns="http://www.w3.org/2000/svg" viewBox="0 0 24 24" fill="#FF9900">
  <path d="M6.76 10.18c0 .35.04.64.11.86.08.22.18.44.32.66.05.07.07.15.07.22 0 .1-.06.19-.17.29l-.58.38a.44.44 0 0 1-.23.08c-.09 0-.18-.04-.26-.13a2.68 2.68 0 0 1-.32-.41 6.94 6.94 0 0 1-.27-.52c-.69.81-1.56 1.22-2.6 1.22-.74 0-1.33-.21-1.76-.64a2.28 2.28 0 0 1-.65-1.69c0-.75.27-1.36.81-1.82.54-.46 1.26-.69 2.16-.69.3 0 .61.02.94.07.33.04.67.11 1.03.18v-.61c0-.63-.13-1.07-.39-1.33-.27-.26-.72-.39-1.36-.39-.29 0-.59.04-.9.11-.31.07-.61.16-.9.28a2.4 2.4 0 0 1-.39.15.67.67 0 0 1-.17.02c-.15 0-.22-.11-.22-.33v-.52c0-.17.02-.3.07-.37a.75.75 0 0 1 .3-.2c.29-.15.64-.27 1.04-.38A5.04 5.04 0 0 1 4.96 4c1.06 0 1.84.24 2.33.72.49.47.73 1.19.73 2.16v2.85l-.01.01zm-3.59 1.35c.29 0 .59-.05.91-.16.32-.1.6-.29.84-.55.14-.16.25-.34.31-.55.06-.21.1-.46.1-.75v-.36a7.73 7.73 0 0 0-.82-.14 6.8 6.8 0 0 0-.84-.05c-.6 0-1.04.12-1.33.35-.29.24-.43.57-.43 1.01 0 .42.11.73.32.95.21.21.52.32.94.32zm6.36.86c-.19 0-.32-.03-.41-.11-.09-.08-.16-.23-.23-.46L6.5 4.69c-.06-.21-.1-.35-.1-.42 0-.17.08-.26.25-.26h1.03c.2 0 .33.03.41.11.09.07.15.23.22.46l1.46 5.75 1.36-5.75c.06-.24.12-.39.21-.46.09-.08.23-.11.42-.11h.84c.2 0 .34.03.43.11.09.07.16.23.21.46l1.38 5.82 1.5-5.82c.07-.24.14-.39.23-.46.09-.08.22-.11.4-.11h.98c.17 0 .26.08.26.26 0 .05-.01.11-.03.18-.02.07-.05.16-.1.29l-2.09 7.13c-.07.24-.14.39-.23.46-.09.08-.23.11-.42.11h-.91c-.2 0-.33-.03-.42-.11-.09-.08-.16-.23-.21-.47l-1.35-5.63-1.34 5.62c-.06.24-.12.39-.21.47-.09.08-.23.11-.42.11h-.91z"/>
  <path d="M20.18 13.35c-.54 0-1.06-.06-1.56-.19a3.93 3.93 0 0 1-1.12-.47c-.11-.07-.19-.15-.21-.23a.58.58 0 0 1-.04-.2v-.54c0-.22.08-.33.25-.33.06 0 .13.01.19.04.06.02.16.07.28.12.38.17.78.3 1.22.38.44.09.87.13 1.29.13.68 0 1.21-.12 1.58-.36.37-.24.56-.59.56-1.04 0-.31-.1-.57-.3-.78-.2-.22-.58-.41-1.12-.58l-1.61-.5c-.81-.26-1.41-.64-1.78-1.14-.37-.49-.55-1.04-.55-1.64 0-.47.1-.89.31-1.26.2-.37.48-.68.82-.94.34-.26.74-.46 1.18-.59.45-.14.92-.2 1.42-.2.24 0 .48.01.73.04.25.03.48.07.71.12.22.05.43.11.63.18.2.07.36.14.48.21.1.06.18.13.23.2.05.06.07.15.07.26v.5c0 .22-.09.34-.26.34-.08 0-.22-.04-.39-.13a4.61 4.61 0 0 0-2.14-.49c-.62 0-1.11.1-1.46.32-.35.21-.52.53-.52.97 0 .31.11.57.33.79.22.22.63.43 1.22.62l1.58.5c.8.25 1.38.61 1.73 1.07.36.47.53.99.53 1.58 0 .48-.1.92-.3 1.31-.2.39-.48.73-.84 1.01-.36.28-.79.5-1.29.65-.51.15-1.07.23-1.68.23z"/>
</svg>
