<svg xmlns="http://www.w3.org/2000/svg" viewBox="0 0 24 24" fill="#F2C811">
  <path d="M15.75 23.5h-1.5a.75.75 0 0 1-.75-.75V1.25a.75.75 0 0 1 .75-.75h1.5a.75.75 0 0 1 .75.75v21.5a.75.75 0 0 1-.75.75zm-4.5-3h-1.5a.75.75 0 0 1-.75-.75V4.25a.75.75 0 0 1 .75-.75h1.5a.75.75 0 0 1 .75.75v15.5a.75.75 0 0 1-.75.75zm-4.5-3h-1.5A.75.75 0 0 1 4.5 16.75V7.25a.75.75 0 0 1 .75-.75h1.5a.75.75 0 0 1 .75.75v9.5a.75.75 0 0 1-.75.75zm13.5 3h-1.5a.75.75 0 0 1-.75-.75v-12.5a.75.75 0 0 1 .75-.75h1.5a.75.75 0 0 1 .75.75v12.5a.75.75 0 0 1-.75.75z"/>
</svg>
